<svg width="432" height="40" viewBox="0 0 432 40" fill="none" xmlns="http://www.w3.org/2000/svg">
<path d="M19.2117 21.26H16.8493V18.509C16.8464 18.3423 16.8033 18.1789 16.7234 18.0325C16.6436 17.8862 16.5296 17.7614 16.391 17.6688C16.2524 17.5762 16.0935 17.5185 15.9277 17.5008C15.762 17.483 15.5944 17.5057 15.4394 17.5668L11.392 19.2483L9.01584 20.2318L8.10114 18.031L14.9132 15.2078L8.72355 12.6425L9.62793 10.4418L15.8176 13.0036L13.242 6.8139L15.4394 5.8992L18.0253 12.0889L20.6078 5.8992L22.8051 6.81046L20.2467 13.0002L26.4364 10.4418L27.3477 12.6425L21.158 15.2078L27.9391 18.031L27.0279 20.2318L20.6318 17.5737C20.477 17.5132 20.3098 17.4911 20.1445 17.5092C19.9792 17.5273 19.8208 17.5851 19.6827 17.6777C19.5446 17.7702 19.4308 17.8947 19.3512 18.0407C19.2716 18.1866 19.2284 18.3497 19.2254 18.5159L19.2117 21.26ZM29.0705 11.9204L28.1627 9.71962L31.653 8.2788L32.5608 10.4658L29.0705 11.9204ZM6.9698 11.9204H6.93541L3.47949 10.4658L4.39075 8.26848L6.24767 9.03532L7.88106 9.72306L6.9698 11.9204ZM12.5027 5.08766L11.0447 1.60424L13.242 0.686097L14.7 4.16952L12.5027 5.08766ZM23.5238 5.08766L21.3196 4.16609L22.7639 0.675781L24.9646 1.58704L23.5238 5.08766Z" fill="white"/>
<path d="M19.6786 30.7692H16.5048V30.6489C16.5039 29.5849 16.0808 28.5648 15.3285 27.8125C14.5762 27.0601 13.556 26.6371 12.4921 26.6362H0V23.459H12.4921C13.5808 23.4587 14.6552 23.7062 15.6341 24.1828C16.6129 24.6594 17.4704 25.3526 18.1415 26.2098C18.8147 25.3878 19.6621 24.7257 20.6225 24.2713C21.5829 23.817 22.6323 23.5818 23.6947 23.5828H36.1834V26.7565H23.6947C22.6304 26.7574 21.61 27.1804 20.8571 27.9326C20.1042 28.6848 19.6804 29.705 19.6786 30.7692Z" fill="white"/>
<path d="M45.9488 2.2793H56.2993C62.1933 2.2793 66.2338 5.64925 66.2338 11.2441C66.2338 16.8389 62.1933 20.2088 56.2993 20.2088H50.2403V30.8998H45.9488V2.2793ZM56.0896 16.3368C59.8722 16.3368 61.8151 14.3595 61.8151 11.4538V11.0343C61.8151 8.0873 59.8791 6.11004 56.0896 6.11004H50.2438V16.3368H56.0896Z" fill="white"/>
<path d="M69.4573 23.2987V9.88634H73.7492V22.9616C73.7492 26.074 75.2659 27.6766 78.0446 27.6766C80.9472 27.6766 83.1791 25.957 83.1791 21.868V9.86914H87.4711V30.9162H83.2341V27.2123C81.8035 29.5268 79.6988 31.3392 76.4558 31.3392C72.3736 31.3357 69.4573 28.5157 69.4573 23.2987Z" fill="white"/>
<path d="M96.2327 27.0724V30.9028H92.0275V0.8125H96.3187V13.535C97.8317 10.9251 100.101 9.45346 103.22 9.45346C108.312 9.45346 112.184 13.3252 112.184 20.3948C112.184 27.4643 108.312 31.3223 103.22 31.3223C100.06 31.3223 97.7491 29.8094 96.2327 27.0724ZM101.999 27.8735C105.534 27.8735 107.807 25.4666 107.807 20.9277V19.793C107.807 15.323 105.534 12.9745 101.999 12.9745C98.3818 12.9745 96.3187 15.4984 96.3187 19.3701V21.3507C96.3187 25.305 98.3818 27.8735 101.999 27.8735Z" fill="white"/>
<path d="M115.879 0.8125H120.17V27.289H122.147V30.9028H115.879V0.8125Z" fill="white"/>
<path d="M125.226 6.15974V1.61719H129.814V6.15974H125.226ZM125.395 30.9185H129.69V9.86325H125.395V30.9185Z" fill="white"/>
<path d="M133.389 20.3825C133.389 13.5216 137.726 9.43945 143.662 9.43945C149.47 9.43945 152.586 13.3531 153.047 17.2255H148.669C148.291 14.574 146.396 13.0161 143.662 13.0161C140.223 13.0161 137.815 15.334 137.815 19.7944V20.974C137.815 25.4448 140.223 27.749 143.662 27.749C146.396 27.749 148.291 26.1911 148.669 23.4983H153.047C152.586 27.412 149.47 31.3256 143.662 31.3256C137.726 31.3256 133.389 27.2434 133.389 20.3825Z" fill="white"/>
<path d="M164.068 2.2793H173.16C181.282 2.2793 187.555 7.37205 187.555 16.5913C187.555 25.8105 181.282 30.8998 173.16 30.8998H164.068V2.2793ZM172.823 26.9865C179.137 26.9865 183.139 23.1145 183.139 17.3065V15.876C183.139 10.068 179.144 6.196 172.823 6.196H168.353V26.9865H172.823Z" fill="white"/>
<path d="M190.201 20.3825C190.201 13.7314 194.41 9.43945 200.429 9.43945C206.447 9.43945 210.656 13.7314 210.656 20.3825C210.656 27.0337 206.447 31.3256 200.429 31.3256C194.41 31.3256 190.201 27.0337 190.201 20.3825ZM200.429 27.749C203.795 27.749 206.275 25.4345 206.275 20.974V19.7944C206.275 15.3237 203.792 13.0161 200.429 13.0161C197.065 13.0161 194.62 15.334 194.62 19.7944V20.974C194.62 25.4345 197.062 27.749 200.429 27.749Z" fill="white"/>
<path d="M214.356 9.86583H218.565V13.6482C219.94 11.2412 222.003 9.43945 225.297 9.43945C228.413 9.43945 230.851 11.0796 231.831 14.1536C233.178 11.5438 235.493 9.43945 238.986 9.43945C243.068 9.43945 246.011 12.3003 246.011 17.5199V30.9095H241.727V17.8638C241.727 14.7485 240.169 13.1083 237.391 13.1083C234.489 13.1083 232.343 14.8276 232.343 18.916V30.9095H228.031V17.8638C228.031 14.7485 226.477 13.1083 223.698 13.1083C220.793 13.1083 218.647 14.8276 218.647 18.916V30.9095H214.356V9.86583Z" fill="white"/>
<path d="M249.914 25.7303C249.914 22.1502 252.82 20.2278 256.104 19.3714L263.048 17.6622V17.1842C263.048 14.0272 261.404 12.8923 258.838 12.8923C255.977 12.8923 254.419 14.2369 254.333 17.057H250C250.292 12.0497 254.041 9.43945 259.007 9.43945C264.393 9.43945 267.34 12.5965 267.34 17.6485V30.906H263.089V27.3707C261.617 29.895 259.554 31.3256 256.397 31.3256C252.229 31.3256 249.914 28.8839 249.914 25.7303ZM257.745 28.1376C260.775 28.1376 263.048 26.2014 263.048 22.8758V20.6783L257.545 21.9817C255.317 22.5285 254.223 23.5396 254.223 25.2247C254.209 27.2022 255.64 28.1273 257.745 28.1273V28.1376Z" fill="white"/>
<path d="M271.586 6.15974V1.61719H276.173V6.15974H271.586ZM271.755 30.9185H276.046V9.86325H271.755V30.9185Z" fill="white"/>
<path d="M280.582 9.8659H284.791V13.6489C286.167 11.2415 288.23 9.43945 291.525 9.43945C295.652 9.43945 298.723 12.3007 298.723 17.5212V30.9129H294.438V17.8651C294.438 14.7494 292.756 13.1089 289.936 13.1089C287.03 13.1089 284.884 14.8285 284.884 18.9175V30.9129H280.582V9.8659Z" fill="white"/>
<path d="M310.639 2.2793H314.93V26.9865H328.341V30.8998H310.639V2.2793Z" fill="white"/>
<path d="M331.382 6.15974V1.61719H335.969V6.15974H331.382ZM331.551 30.9185H335.846V9.86325H331.551V30.9185Z" fill="white"/>
<path d="M344.596 27.0723V30.9028H340.387V0.8125H344.682V13.535C346.195 10.9251 348.464 9.45346 351.583 9.45346C356.676 9.45346 360.547 13.3252 360.547 20.3948C360.547 27.4643 356.676 31.3361 351.583 31.3361C348.427 31.3223 346.112 29.8094 344.596 27.0723ZM350.362 27.8735C353.897 27.8735 356.17 25.4666 356.17 20.9277V19.793C356.17 15.323 353.897 12.9745 350.362 12.9745C346.742 12.9745 344.682 15.4983 344.682 19.3701V21.3507C344.682 25.305 346.742 27.8735 350.362 27.8735Z" fill="white"/>
<path d="M364.247 9.86017H368.457V13.4815C369.764 10.5789 371.824 9.65039 374.393 9.65039H375.235V13.9011H372.584C369.832 13.9011 368.543 15.1666 368.543 18.1964V30.9209H364.247V9.86017Z" fill="white"/>
<path d="M377.46 25.7303C377.46 22.1502 380.362 20.2278 383.65 19.3714L390.594 17.6519V17.1842C390.594 14.0272 388.953 12.8923 386.388 12.8923C383.523 12.8923 381.965 14.2369 381.882 17.057H377.546C377.842 12.0497 381.587 9.43945 386.556 9.43945C391.942 9.43945 394.889 12.5965 394.889 17.6485V30.906H390.638V27.3707C389.163 29.895 387.103 31.3256 383.946 31.3256C379.774 31.3256 377.46 28.8839 377.46 25.7303ZM385.287 28.1376C388.32 28.1376 390.59 26.2014 390.59 22.8758V20.6783L385.088 21.9817C382.859 22.5285 381.762 23.5396 381.762 25.2247C381.752 27.2022 383.182 28.1273 385.287 28.1273V28.1376Z" fill="white"/>
<path d="M399.303 9.86017H403.513V13.4815C404.816 10.5789 406.879 9.65039 409.445 9.65039H410.288V13.9011H407.636C404.885 13.9011 403.595 15.1666 403.595 18.1964V30.9209H399.303V9.86017Z" fill="white"/>
<path d="M421.14 30.4937H418.362L411.588 9.86133H416.092L420.384 23.3721L421.856 28.2963H421.942L423.413 23.3308L427.581 9.86133H432L422.715 39.3243H418.424L421.14 30.4937Z" fill="white"/>
</svg>
