<svg width="37" height="30" viewBox="0 0 37 30" fill="none" xmlns="http://www.w3.org/2000/svg">
<g clip-path="url(#clip0_896_20050)">
<path d="M19.2117 20.969H16.8493V18.218C16.8464 18.0513 16.8033 17.8878 16.7234 17.7415C16.6436 17.5952 16.5296 17.4704 16.391 17.3778C16.2524 17.2852 16.0935 17.2275 15.9277 17.2097C15.762 17.192 15.5944 17.2146 15.4394 17.2758L11.392 18.9573L9.01584 19.9408L8.10114 17.74L14.9132 14.9168L8.72355 12.3515L9.62793 10.1507L15.8176 12.7126L13.242 6.52289L15.4394 5.60819L18.0253 11.7979L20.6078 5.60819L22.8051 6.51945L20.2467 12.7092L26.4364 10.1507L27.3477 12.3515L21.158 14.9168L27.9391 17.74L27.0279 19.9408L20.6318 17.2827C20.477 17.2222 20.3098 17.2001 20.1445 17.2182C19.9792 17.2363 19.8208 17.2941 19.6827 17.3866C19.5446 17.4792 19.4308 17.6037 19.3512 17.7497C19.2716 17.8956 19.2284 18.0586 19.2254 18.2249L19.2117 20.969ZM29.0705 11.6294L28.1627 9.42861L31.653 7.98778L32.5608 10.1748L29.0705 11.6294ZM6.9698 11.6294H6.93541L3.47949 10.1748L4.39075 7.97747L6.24767 8.7443L7.88106 9.43205L6.9698 11.6294ZM12.5027 4.79665L11.0447 1.31322L13.242 0.395082L14.7 3.87851L12.5027 4.79665ZM23.5238 4.79665L21.3196 3.87507L22.7639 0.384766L24.9646 1.29603L23.5238 4.79665Z" fill="white"/>
</g>
<path d="M19.6786 29.6149H16.5048V29.4946C16.5039 28.4306 16.0808 27.4105 15.3285 26.6582C14.5762 25.9058 13.556 25.4828 12.4921 25.4819H0V22.3047H12.4921C13.5808 22.3044 14.6552 22.5519 15.6341 23.0285C16.6129 23.5051 17.4704 24.1983 18.1415 25.0555C18.8147 24.2335 19.6621 23.5714 20.6225 23.1171C21.5829 22.6627 22.6323 22.4275 23.6947 22.4285H36.1834V25.6022H23.6947C22.6304 25.6031 21.61 26.0261 20.8571 26.7783C20.1042 27.5305 19.6804 28.5507 19.6786 29.6149Z" fill="white"/>
<defs>
<clipPath id="clip0_896_20050">
<rect width="29.0813" height="20.5842" fill="white" transform="translate(3.47949 0.384766)"/>
</clipPath>
</defs>
</svg>
