<svg width="41" height="16" viewBox="0 0 41 16" fill="none" xmlns="http://www.w3.org/2000/svg">
<path d="M8.27186 2.05498C7.81689 2.59336 7.08892 3.01801 6.36096 2.95735C6.26997 2.22938 6.62637 1.45592 7.04343 0.978199C7.4984 0.424645 8.29461 0.0303318 8.93916 0C9.01499 0.758294 8.71926 1.50142 8.27186 2.05498ZM8.93158 3.10142C7.87755 3.04076 6.97518 3.70047 6.47471 3.70047C5.96665 3.70047 5.20077 3.13175 4.36665 3.14692C3.28229 3.16209 2.27376 3.7763 1.7202 4.7545C0.582763 6.7109 1.42447 9.60758 2.524 11.2C3.06238 11.9886 3.70693 12.8531 4.55622 12.8227C5.36001 12.7924 5.6785 12.2995 6.64911 12.2995C7.62731 12.2995 7.90788 12.8227 8.75717 12.8076C9.63679 12.7924 10.1903 12.019 10.7287 11.2303C11.343 10.3355 11.5932 9.46351 11.6084 9.41801C11.5932 9.40284 9.90978 8.75829 9.89461 6.81706C9.87945 5.19431 11.2216 4.42085 11.2823 4.37536C10.524 3.25308 9.34106 3.13175 8.93158 3.10142ZM15.0207 0.90237V12.7242H16.8557V8.68246H19.396C21.7164 8.68246 23.3467 7.09005 23.3467 4.78483C23.3467 2.47962 21.7467 0.90237 19.4567 0.90237H15.0207ZM16.8557 2.44929H18.9714C20.5638 2.44929 21.4738 3.29858 21.4738 4.79242C21.4738 6.28626 20.5638 7.14313 18.9638 7.14313H16.8557V2.44929ZM26.6984 12.8152C27.851 12.8152 28.9202 12.2313 29.4055 11.3062H29.4434V12.7242H31.142V6.83981C31.142 5.13365 29.7771 4.03412 27.6766 4.03412C25.7278 4.03412 24.287 5.14882 24.2339 6.68057H25.887C26.0235 5.95261 26.6984 5.47488 27.6235 5.47488C28.7458 5.47488 29.3752 5.9981 29.3752 6.96114V7.61327L27.0851 7.74976C24.9543 7.87867 23.8017 8.75071 23.8017 10.2673C23.8017 11.7991 24.9922 12.8152 26.6984 12.8152ZM27.1913 11.4123C26.2131 11.4123 25.5913 10.9422 25.5913 10.2218C25.5913 9.47867 26.1903 9.04645 27.3354 8.9782L29.3752 8.84929V9.51659C29.3752 10.6237 28.4349 11.4123 27.1913 11.4123ZM33.4093 15.9393C35.1989 15.9393 36.0406 15.2569 36.7761 13.1867L39.9989 4.14787H38.1335L35.9723 11.1318H35.9344L33.7733 4.14787H31.8548L34.9638 12.7545L34.797 13.2777C34.5164 14.1649 34.0614 14.5062 33.2501 14.5062C33.106 14.5062 32.8254 14.491 32.7117 14.4758V15.8938C32.8178 15.9242 33.2728 15.9393 33.4093 15.9393Z" fill="black"/>
</svg>
