<svg width="42" height="16" viewBox="0 0 42 16" fill="none" xmlns="http://www.w3.org/2000/svg">
<g clip-path="url(#clip0_697_23526)">
<path d="M20.1352 7.77863V12.4453H18.6547V0.920697H22.5811C23.5278 0.900923 24.4431 1.2601 25.1237 1.9184C25.8122 2.53776 26.1995 3.42454 26.1857 4.35058C26.2055 5.2818 25.8175 6.17519 25.1237 6.79656C24.4371 7.45127 23.5896 7.77832 22.5811 7.77771L20.1352 7.77863ZM20.1352 2.33955V6.36254H22.6179C23.1683 6.37885 23.7001 6.16254 24.0828 5.76667C24.4631 5.39686 24.6777 4.88891 24.6777 4.3584C24.6777 3.82788 24.4631 3.31993 24.0828 2.95012C23.7047 2.54575 23.1713 2.32308 22.6179 2.33863L20.1352 2.33955Z" fill="#5F6368"/>
<path d="M29.5972 4.30273C30.6915 4.30273 31.5552 4.59515 32.1885 5.17998C32.8218 5.7648 33.1381 6.56664 33.1375 7.58549V12.4453H31.7214V11.351H31.657C31.044 12.2522 30.2286 12.7027 29.211 12.7027C28.3424 12.7027 27.6156 12.4453 27.0308 11.9303C26.4624 11.4517 26.1401 10.7423 26.1536 9.99929C26.1536 9.18335 26.4619 8.53446 27.0786 8.05262C27.6953 7.57078 28.5186 7.32925 29.5485 7.32802C30.4276 7.32802 31.1516 7.48894 31.7205 7.81078V7.47239C31.7238 6.96592 31.4993 6.48477 31.109 6.16205C30.7175 5.80883 30.2072 5.6161 29.68 5.62227C28.853 5.62227 28.1986 5.97109 27.7168 6.66871L26.4129 5.84756C27.1301 4.81768 28.1916 4.30273 29.5972 4.30273ZM27.6818 10.0315C27.6798 10.4138 27.8627 10.7734 28.1729 10.997C28.5003 11.2545 28.9067 11.391 29.3232 11.3832C29.9479 11.3822 30.5468 11.1335 30.9885 10.6917C31.4789 10.2301 31.7241 9.68848 31.7241 9.06687C31.2625 8.69906 30.6188 8.51515 29.7931 8.51515C29.1917 8.51515 28.6903 8.66013 28.2887 8.95009C27.8832 9.24434 27.6818 9.60205 27.6818 10.0315Z" fill="#5F6368"/>
<path d="M41.2662 4.55859L36.3228 15.9195H34.7945L36.629 11.9443L33.3784 4.55859H34.9876L37.337 10.223H37.3692L39.6542 4.55859H41.2662Z" fill="#5F6368"/>
<path d="M14.1526 6.77199C14.1532 6.32082 14.115 5.87043 14.0386 5.42578H7.79493V7.97567H11.371C11.2232 8.79861 10.7455 9.52542 10.0487 9.98762V11.6428H12.183C13.4326 10.4906 14.1526 8.7867 14.1526 6.77199Z" fill="#4285F4"/>
<path d="M7.79493 13.2422C9.5816 13.2422 11.086 12.6556 12.183 11.6441L10.0487 9.9889C9.4547 10.3917 8.68965 10.6215 7.79493 10.6215C6.06804 10.6215 4.60229 9.45741 4.07815 7.88867H1.87953V9.59442C3.00335 11.8307 5.29215 13.2421 7.79493 13.2422Z" fill="#34A853"/>
<path d="M4.07815 7.88844C3.80106 7.06641 3.80106 6.17621 4.07815 5.35418V3.64844H1.87953C0.93955 5.5189 0.93955 7.72372 1.87953 9.59418L4.07815 7.88844Z" fill="#FBBC04"/>
<path d="M7.79493 2.62112C8.73911 2.6057 9.65143 2.96244 10.3347 3.61423L12.2244 1.72457C11.0261 0.599125 9.43872 -0.0187648 7.79493 0.000434379C5.29215 0.000548446 3.00335 1.41197 1.87953 3.64825L4.07815 5.354C4.60229 3.78526 6.06804 2.62112 7.79493 2.62112Z" fill="#EA4335"/>
</g>
<defs>
<clipPath id="clip0_697_23526">
<rect width="41" height="16" fill="white" transform="translate(0.5)"/>
</clipPath>
</defs>
</svg>
