<svg width="45" height="14" viewBox="0 0 45 14" fill="none" xmlns="http://www.w3.org/2000/svg">
<g clip-path="url(#clip0_697_23553)">
<path d="M19.8993 13.784H16.3989L18.5883 0.246094H22.0886L19.8993 13.784Z" fill="#00579F"/>
<path d="M32.5888 0.57636C31.8984 0.302441 30.8033 0 29.4492 0C25.9924 0 23.5581 1.84336 23.5432 4.4788C23.5144 6.42323 25.286 7.50321 26.611 8.15154C27.9653 8.81404 28.4257 9.24645 28.4257 9.83698C28.4119 10.7439 27.3313 11.162 26.3235 11.162C24.926 11.162 24.1771 10.9464 23.0392 10.4419L22.5782 10.2256L22.0884 13.2645C22.9094 13.6385 24.422 13.9705 25.9924 13.985C29.6653 13.985 32.0565 12.1702 32.0848 9.36169C32.0988 7.82058 31.1633 6.63972 29.1465 5.67478C27.9222 5.05535 27.1724 4.63768 27.1724 4.00389C27.1868 3.42773 27.8066 2.83758 29.1887 2.83758C30.3266 2.80868 31.1627 3.08222 31.7962 3.35594L32.1128 3.4997L32.5888 0.57636Z" fill="#00579F"/>
<path d="M37.2412 8.98797C37.5295 8.21024 38.6388 5.20019 38.6388 5.20019C38.6242 5.22909 38.9265 4.4081 39.0993 3.90409L39.344 5.0706C39.344 5.0706 40.0068 8.31112 40.1508 8.98797C39.6037 8.98797 37.9326 8.98797 37.2412 8.98797ZM41.5621 0.246094H38.8545C38.0195 0.246094 37.3852 0.490726 37.0249 1.36934L31.8254 13.7838H35.4984C35.4984 13.7838 36.1031 12.1129 36.233 11.753C36.636 11.753 40.209 11.753 40.7273 11.753C40.8278 12.2283 41.145 13.7838 41.145 13.7838H44.3861L41.5621 0.246094Z" fill="#00579F"/>
<path d="M13.4751 0.246094L10.047 9.47762L9.67242 7.60536C9.03863 5.44501 7.05095 3.09784 4.83279 1.93077L7.97282 13.7696H11.6745L17.1766 0.246094H13.4751Z" fill="#00579F"/>
<path d="M6.86375 0.246094H1.23184L1.17422 0.51963C5.56746 1.64306 8.47702 4.35106 9.67243 7.60593L8.44811 1.38407C8.24655 0.519439 7.62712 0.274615 6.86375 0.246094Z" fill="#FAA61A"/>
</g>
<defs>
<clipPath id="clip0_697_23553">
<rect width="44" height="14" fill="white" transform="translate(0.5)"/>
</clipPath>
</defs>
</svg>
