<svg width="33" height="20" viewBox="0 0 33 20" fill="none" xmlns="http://www.w3.org/2000/svg">
<g clip-path="url(#clip0_697_23567)">
<path d="M31.8482 16.0703V15.6928H31.7498L31.636 15.9521L31.5227 15.6928H31.4237V16.0703H31.4936V15.7856L31.6001 16.0313H31.6725L31.7789 15.785V16.0703H31.8482ZM31.2238 16.0703V15.7572H31.3501V15.6934H31.0283V15.7572H31.1545V16.0703H31.2238Z" fill="#F79410"/>
<path d="M20.6596 17.6938H12.1434V2.38867H20.6596V17.6938Z" fill="#FF5F00"/>
<path d="M12.689 10.0397C12.689 6.93501 14.1426 4.16942 16.4063 2.38717C14.7509 1.08389 12.6617 0.306013 10.3912 0.306013C5.016 0.306013 0.658752 4.66387 0.658752 10.0397C0.658752 15.4156 5.016 19.7734 10.3912 19.7734C12.6617 19.7734 14.7509 18.9956 16.4063 17.6923C14.1426 15.91 12.689 13.1444 12.689 10.0397Z" fill="#EB001B"/>
<path d="M32.1453 10.0397C32.1453 15.4156 27.788 19.7734 22.4128 19.7734C20.1423 19.7734 18.0531 18.9956 16.397 17.6923C18.6614 15.91 20.115 13.1444 20.115 10.0397C20.115 6.93501 18.6614 4.16942 16.397 2.38717C18.0531 1.08389 20.1423 0.306013 22.4128 0.306013C27.788 0.306013 32.1453 4.66387 32.1453 10.0397Z" fill="#F79E1B"/>
</g>
<defs>
<clipPath id="clip0_697_23567">
<rect width="32" height="20" fill="white" transform="translate(0.5)"/>
</clipPath>
</defs>
</svg>
