<svg width="59" height="16" viewBox="0 0 59 16" fill="none" xmlns="http://www.w3.org/2000/svg">
<g clip-path="url(#clip0_697_23542)">
<path d="M7.58778 0.353516H3.17553C2.87375 0.353326 2.61673 0.572839 2.56972 0.870935L0.785204 12.1851C0.768601 12.2914 0.79934 12.3996 0.869326 12.4812C0.939313 12.5629 1.04153 12.6098 1.14907 12.6096H3.25553C3.55752 12.6098 3.8146 12.3899 3.86133 12.0916L4.34262 9.03997C4.38931 8.74186 4.64604 8.52208 4.94778 8.5219H6.34456C9.25101 8.5219 10.9284 7.11545 11.3665 4.32835C11.5639 3.109 11.3749 2.15094 10.8039 1.47997C10.1768 0.743193 9.06456 0.353516 7.58778 0.353516ZM8.09682 4.48577C7.85553 6.069 6.64585 6.069 5.47617 6.069H4.81037L5.27746 3.11223C5.30571 2.93352 5.45976 2.8019 5.64069 2.8019H5.94585C6.74262 2.8019 7.49424 2.8019 7.88262 3.2561C8.11424 3.52706 8.1852 3.92965 8.09682 4.48577ZM20.7768 4.43481H18.6639C18.483 4.43481 18.3289 4.56642 18.3007 4.74513L18.2071 5.3361L18.0594 5.1219C17.602 4.45803 16.582 4.2361 15.5639 4.2361C13.2291 4.2361 11.2349 6.00448 10.8465 8.48513C10.6446 9.72255 10.9317 10.9058 11.6336 11.7309C12.2775 12.4896 13.1988 12.8058 14.2949 12.8058C16.1762 12.8058 17.2194 11.5961 17.2194 11.5961L17.1252 12.1832C17.1082 12.2894 17.1386 12.3978 17.2083 12.4797C17.2781 12.5616 17.3802 12.6088 17.4878 12.609H19.391C19.693 12.6091 19.9501 12.3893 19.9968 12.0909L21.1388 4.85932C21.1558 4.75333 21.1254 4.6452 21.0558 4.56351C20.9861 4.48182 20.8842 4.43477 20.7768 4.43481ZM17.8317 8.54706C17.6278 9.75416 16.6697 10.5645 15.4478 10.5645C14.8342 10.5645 14.3439 10.3677 14.0291 9.99481C13.7168 9.62448 13.5981 9.09739 13.6975 8.51029C13.8878 7.31352 14.862 6.47674 16.0652 6.47674C16.6652 6.47674 17.1529 6.6761 17.4742 7.05223C17.7962 7.43223 17.9239 7.96255 17.8317 8.54706ZM32.0297 4.4348H29.9065C29.7032 4.43513 29.5132 4.53581 29.3988 4.70384L26.4704 9.01739L25.2291 4.87223C25.1508 4.61264 24.9118 4.43494 24.6407 4.4348H22.5542C22.4354 4.43449 22.3237 4.49161 22.2545 4.58816C22.1852 4.68471 22.1668 4.80879 22.2052 4.92126L24.5439 11.7845L22.3452 14.8884C22.2655 15.0005 22.2552 15.1478 22.3183 15.2701C22.3815 15.3923 22.5076 15.469 22.6452 15.469H24.7659C24.9668 15.4693 25.1551 15.3709 25.2697 15.2058L32.3317 5.01223C32.4097 4.89982 32.4188 4.7534 32.3554 4.63214C32.292 4.51089 32.1665 4.4348 32.0297 4.4348Z" fill="#253B80"/>
<path d="M39.0594 0.354161H34.6465C34.345 0.354288 34.0883 0.573726 34.0413 0.87158L32.2568 12.1858C32.24 12.2918 32.2705 12.3999 32.3403 12.4816C32.41 12.5633 32.512 12.6103 32.6194 12.6103H34.8839C35.095 12.61 35.2745 12.4562 35.3071 12.2477L35.8136 9.04061C35.8603 8.7425 36.117 8.52273 36.4188 8.52255H37.8149C40.722 8.52255 42.3988 7.1161 42.8375 4.329C43.0355 3.10964 42.8452 2.15158 42.2742 1.48061C41.6478 0.743838 40.5362 0.354161 39.0594 0.354161ZM39.5684 4.48642C39.3278 6.06964 38.1181 6.06964 36.9478 6.06964H36.2826L36.7504 3.11287C36.7781 2.93412 36.9321 2.80232 37.1129 2.80255H37.4181C38.2142 2.80255 38.9665 2.80255 39.3549 3.25674C39.5865 3.52771 39.6568 3.93029 39.5684 4.48642ZM52.2478 4.43545H50.1362C49.9552 4.43495 49.801 4.56688 49.7736 4.74577L49.68 5.33674L49.5317 5.12255C49.0742 4.45868 48.0549 4.23674 47.0368 4.23674C44.702 4.23674 42.7084 6.00513 42.32 8.48577C42.1188 9.72319 42.4046 10.9064 43.1065 11.7316C43.7517 12.4903 44.6717 12.8064 45.7678 12.8064C47.6491 12.8064 48.6923 11.5967 48.6923 11.5967L48.5981 12.1838C48.5811 12.2903 48.6116 12.3989 48.6817 12.4808C48.7517 12.5628 48.8542 12.6099 48.962 12.6096H50.8646C51.1663 12.6095 51.423 12.3897 51.4697 12.0916L52.6123 4.85997C52.6287 4.75364 52.5978 4.64547 52.5277 4.56385C52.4576 4.48223 52.3554 4.43533 52.2478 4.43545ZM49.3026 8.54771C49.1 9.75481 48.1407 10.5651 46.9188 10.5651C46.3065 10.5651 45.8149 10.3684 45.5 9.99545C45.1878 9.62513 45.0704 9.09803 45.1684 8.51093C45.36 7.31416 46.3329 6.47739 47.5362 6.47739C48.1362 6.47739 48.6239 6.67674 48.9452 7.05287C49.2684 7.43287 49.3962 7.96319 49.3026 8.54771ZM54.7388 0.664483L52.9278 12.1858C52.911 12.2918 52.9415 12.3999 53.0112 12.4816C53.081 12.5633 53.183 12.6103 53.2904 12.6103H55.111C55.4136 12.6103 55.6704 12.3909 55.7168 12.0922L57.5026 0.778677C57.5194 0.672547 57.4889 0.564389 57.4192 0.482634C57.3495 0.400879 57.2475 0.353706 57.14 0.353516H55.1013C54.9205 0.354156 54.7669 0.485899 54.7388 0.664483Z" fill="#179BD7"/>
</g>
<defs>
<clipPath id="clip0_697_23542">
<rect width="58" height="16" fill="white" transform="translate(0.5)"/>
</clipPath>
</defs>
</svg>
