<svg width="66" height="53" viewBox="0 0 66 53" fill="none" xmlns="http://www.w3.org/2000/svg">
<path d="M42.8307 39.7227C38.7231 39.7227 35.0567 41.6441 32.6745 44.6341C30.2923 41.6441 26.6258 39.7227 22.5182 39.7227H0V45.3988H22.5182C26.5572 45.3988 29.8413 48.6829 29.8413 52.7121H35.5174C35.5174 48.6731 38.8015 45.3988 42.8405 45.3988H65.3587V39.7227H42.8307Z" fill="black"/>
<path d="M50.084 16.7054L51.5349 20.2052L57.8678 17.5877L56.4169 14.0879L50.1134 16.6956L50.084 16.7054Z" fill="#0058FF"/>
<path d="M24.2868 0.783496L20.791 2.23242L23.4148 8.56278L26.9106 7.11386L24.2868 0.783496Z" fill="#0058FF"/>
<path d="M13.8124 20.2052L15.2633 16.7054L8.93035 14.0879L7.48926 17.5877L13.783 20.1856L13.8124 20.2052Z" fill="#0058FF"/>
<path d="M41.0616 0.773156L38.4385 7.10352L41.9342 8.55206L44.5574 2.2217L41.0616 0.773156Z" fill="#0058FF"/>
<path d="M48.3691 21.5183L46.9182 18.0185L40.7323 20.5772L52.5845 8.72496L49.9082 6.04865L38.0658 17.9009L40.6245 11.7248L37.1247 10.2739L34.566 16.4598V0H30.782V16.4696L28.2233 10.2837L24.7235 11.7346L27.2822 17.9107L15.4398 6.05845L12.7634 8.73476L24.6157 20.587L18.4298 18.0283L16.9789 21.5281L23.155 24.0868H7.48926V27.8708H25.3803C28.2233 27.8708 30.5369 30.1844 30.5369 33.0274V36.4782H30.782H31.0074H34.321H34.566H34.7915V33.0274C34.7915 30.1844 37.1051 27.8708 39.9481 27.8708H57.8489V24.0868H42.193L48.3691 21.5183Z" fill="#0058FF"/>
</svg>
