<svg width="22" height="25" viewBox="0 0 22 25" fill="none" xmlns="http://www.w3.org/2000/svg">
<g clip-path="url(#clip0_2591_3574)">
<path d="M2.97709 7.67188H-0.00134277V9.47699H2.97709V7.67188Z" fill="#FF7626"/>
<path d="M11.7321 0H9.92703V2.97843H11.7321V0Z" fill="#FF7626"/>
<path d="M11.7324 7.76215V4.4227H9.92726V7.76215C8.57342 5.59602 6.67806 4.24219 4.42167 4.24219V6.0473C6.13652 6.0473 7.67087 7.31087 8.75393 9.20624C7.58061 8.21343 6.04627 7.6719 4.42167 7.6719V9.47701C7.49036 9.47701 9.92726 12.2749 9.92726 15.7046H11.7324C11.7324 12.2749 14.1693 9.47701 17.238 9.47701V7.6719C15.6134 7.6719 14.1693 8.21343 12.9057 9.20624C13.8985 7.31087 15.4328 6.0473 17.238 6.0473V4.24219C15.0718 4.24219 13.0862 5.59602 11.7324 7.76215Z" fill="#FF7626"/>
<path d="M21.7505 7.67188H18.772V9.47699H21.7505V7.67188Z" fill="#FF7626"/>
<path d="M14.53 11.3711L13.8982 13.0859L18.1402 14.6203L10.8295 17.5085L3.51882 14.7105L7.76083 13.1762L7.12904 11.4613L0.901405 13.7177V25.0899H20.7576V13.6275L14.53 11.3711ZM18.9525 16.2449V22.1115L14.6202 17.9597L18.9525 16.2449ZM12.9054 18.5915L17.6889 23.1946H3.97009L8.75364 18.5915L10.8295 19.4038L12.9054 18.5915ZM7.03878 17.9597L2.79677 22.0212V16.2449L7.03878 17.9597Z" fill="black"/>
</g>
<defs>
<clipPath id="clip0_2591_3574">
<rect width="21.7516" height="25.0008" fill="white"/>
</clipPath>
</defs>
</svg>
